# xmcd
#
# Track frame offsets: 
#        150
#        15199
#        37210
#        51307
#        77788
#        91724
#        111826
#        130456
#        146502
#        162948
#        180050
#        200398
#        218359
#
# Disc length: 3129 seconds
#
# Revision: 0
# Processed by: cddbd v1.5.2PL0 Copyright (c) Steve Scherf et al.
# Submitted via: ExactAudioCopy v0.99pb3
#
DISCID=a10c370d
DTITLE=Alberta Adams - Detroit Is My Home
DYEAR=2008
DGENRE=Blues
TTITLE0=Keep On Keepin' On
TTITLE1=Tired Of Being Alone
TTITLE2=Hello Little boy
TTITLE3=I'm So Worried
TTITLE4=Detroit Is My Home
TTITLE5=Dr. Blues
TTITLE6=Always Home
TTITLE7=Wet Clothes
TTITLE8=Struttin' My Stuff
TTITLE9=Long Gone
TTITLE10=I'm On The Move - Every Day
TTITLE11=Hopin' It Will Be Alright
TTITLE12=Just A Little Bit
EXTD=
EXTT0=
EXTT1=
EXTT2=
EXTT3=
EXTT4=
EXTT5=
EXTT6=
EXTT7=
EXTT8=
EXTT9=
EXTT10=
EXTT11=
EXTT12=
PLAYORDER=
